<svg width="1760" height="216" viewBox="0 0 1760 216" fill="none" xmlns="http://www.w3.org/2000/svg">
<rect x="8" y="8" width="1744" height="200" fill="#151F2E" stroke="#696F79" stroke-width="15" stroke-linejoin="round"/>
<path d="M200.808 74C209.874 74 217.008 76.1667 222.208 80.5C227.408 84.8333 230.008 90.8 230.008 98.4C230.008 106 227.408 111.967 222.208 116.3C217.008 120.633 209.874 122.8 200.808 122.8H183.508V144H173.508V74H200.808ZM200.508 114.1C206.841 114.1 211.674 112.767 215.008 110.1C218.341 107.367 220.008 103.467 220.008 98.4C220.008 93.3333 218.341 89.4667 215.008 86.8C211.674 84.0667 206.841 82.7 200.508 82.7H183.508V114.1H200.508ZM265.804 144.6C260.537 144.6 255.804 143.433 251.604 141.1C247.404 138.767 244.104 135.567 241.704 131.5C239.371 127.367 238.204 122.7 238.204 117.5C238.204 112.3 239.371 107.667 241.704 103.6C244.104 99.4667 247.404 96.2667 251.604 94C255.804 91.6667 260.537 90.5 265.804 90.5C271.071 90.5 275.771 91.6667 279.904 94C284.104 96.2667 287.371 99.4667 289.704 103.6C292.104 107.667 293.304 112.3 293.304 117.5C293.304 122.7 292.104 127.367 289.704 131.5C287.371 135.567 284.104 138.767 279.904 141.1C275.771 143.433 271.071 144.6 265.804 144.6ZM265.804 136.2C269.204 136.2 272.237 135.433 274.904 133.9C277.637 132.3 279.771 130.1 281.304 127.3C282.837 124.433 283.604 121.167 283.604 117.5C283.604 113.833 282.837 110.6 281.304 107.8C279.771 104.933 277.637 102.733 274.904 101.2C272.237 99.6667 269.204 98.9 265.804 98.9C262.404 98.9 259.337 99.6667 256.604 101.2C253.937 102.733 251.804 104.933 250.204 107.8C248.671 110.6 247.904 113.833 247.904 117.5C247.904 121.167 248.671 124.433 250.204 127.3C251.804 130.1 253.937 132.3 256.604 133.9C259.337 135.433 262.404 136.2 265.804 136.2ZM306.58 91H316.18V144H306.58V91ZM311.38 80.8C309.514 80.8 307.947 80.2 306.68 79C305.48 77.8 304.88 76.3333 304.88 74.6C304.88 72.8667 305.48 71.4 306.68 70.2C307.947 68.9333 309.514 68.3 311.38 68.3C313.247 68.3 314.78 68.9 315.98 70.1C317.247 71.2333 317.88 72.6667 317.88 74.4C317.88 76.2 317.247 77.7333 315.98 79C314.78 80.2 313.247 80.8 311.38 80.8ZM362.81 90.5C369.543 90.5 374.877 92.4667 378.81 96.4C382.81 100.267 384.81 105.967 384.81 113.5V144H375.21V114.6C375.21 109.467 373.977 105.6 371.51 103C369.043 100.4 365.51 99.1 360.91 99.1C355.71 99.1 351.61 100.633 348.61 103.7C345.61 106.7 344.11 111.033 344.11 116.7V144H334.51V91H343.71V99C345.643 96.2667 348.243 94.1667 351.51 92.7C354.843 91.2333 358.61 90.5 362.81 90.5ZM432.377 140.9C430.977 142.1 429.243 143.033 427.177 143.7C425.11 144.3 422.977 144.6 420.777 144.6C415.443 144.6 411.31 143.167 408.377 140.3C405.443 137.433 403.977 133.333 403.977 128V98.9H394.977V91H403.977V79.4H413.577V91H428.777V98.9H413.577V127.6C413.577 130.467 414.277 132.667 415.677 134.2C417.143 135.733 419.21 136.5 421.877 136.5C424.81 136.5 427.31 135.667 429.377 134L432.377 140.9ZM459.183 144.6C454.849 144.6 450.683 144.033 446.683 142.9C442.683 141.7 439.549 140.2 437.283 138.4L441.283 130.8C443.616 132.467 446.449 133.8 449.783 134.8C453.116 135.8 456.483 136.3 459.883 136.3C468.283 136.3 472.483 133.9 472.483 129.1C472.483 127.5 471.916 126.233 470.783 125.3C469.649 124.367 468.216 123.7 466.483 123.3C464.816 122.833 462.416 122.333 459.283 121.8C455.016 121.133 451.516 120.367 448.783 119.5C446.116 118.633 443.816 117.167 441.883 115.1C439.949 113.033 438.983 110.133 438.983 106.4C438.983 101.6 440.983 97.7667 444.983 94.9C448.983 91.9667 454.349 90.5 461.083 90.5C464.616 90.5 468.149 90.9333 471.683 91.8C475.216 92.6667 478.116 93.8333 480.383 95.3L476.283 102.9C471.949 100.1 466.849 98.7 460.983 98.7C456.916 98.7 453.816 99.3667 451.683 100.7C449.549 102.033 448.483 103.8 448.483 106C448.483 107.733 449.083 109.1 450.283 110.1C451.483 111.1 452.949 111.833 454.683 112.3C456.483 112.767 458.983 113.3 462.183 113.9C466.449 114.633 469.883 115.433 472.483 116.3C475.149 117.1 477.416 118.5 479.283 120.5C481.149 122.5 482.083 125.3 482.083 128.9C482.083 133.7 480.016 137.533 475.883 140.4C471.816 143.2 466.249 144.6 459.183 144.6ZM523.236 104.2C521.369 104.2 519.769 103.567 518.436 102.3C517.103 100.967 516.436 99.3 516.436 97.3C516.436 95.3667 517.103 93.7667 518.436 92.5C519.769 91.1667 521.369 90.5 523.236 90.5C525.103 90.5 526.669 91.1333 527.936 92.4C529.203 93.6667 529.836 95.3 529.836 97.3C529.836 99.3 529.169 100.967 527.836 102.3C526.569 103.567 525.036 104.2 523.236 104.2ZM523.236 144.6C521.369 144.6 519.769 143.967 518.436 142.7C517.103 141.367 516.436 139.7 516.436 137.7C516.436 135.767 517.103 134.167 518.436 132.9C519.769 131.567 521.369 130.9 523.236 130.9C525.103 130.9 526.669 131.533 527.936 132.8C529.203 134.067 529.836 135.7 529.836 137.7C529.836 139.7 529.169 141.367 527.836 142.7C526.569 143.967 525.036 144.6 523.236 144.6ZM592.948 103.4C599.814 104.067 605.048 106.2 608.648 109.8C612.248 113.333 614.048 117.867 614.048 123.4C614.048 127.4 613.048 131.033 611.048 134.3C609.048 137.5 606.048 140.067 602.048 142C598.114 143.867 593.281 144.8 587.548 144.8C582.548 144.8 577.748 144.067 573.148 142.6C568.548 141.067 564.781 138.967 561.848 136.3L566.448 128.4C568.848 130.667 571.914 132.5 575.648 133.9C579.381 135.233 583.348 135.9 587.548 135.9C592.748 135.9 596.781 134.8 599.648 132.6C602.581 130.4 604.048 127.367 604.048 123.5C604.048 119.633 602.614 116.633 599.748 114.5C596.881 112.367 592.548 111.3 586.748 111.3H581.148V104.3L598.748 82.7H565.048V74H611.248V80.8L592.948 103.4ZM655.93 69.8H664.83V163.4H655.93V69.8ZM759.468 144L744.368 122.5C742.501 122.633 741.035 122.7 739.968 122.7H722.668V144H712.668V74H739.968C749.035 74 756.168 76.1667 761.368 80.5C766.568 84.8333 769.168 90.8 769.168 98.4C769.168 103.8 767.835 108.4 765.168 112.2C762.501 116 758.701 118.767 753.768 120.5L770.368 144H759.468ZM739.668 114.2C746.001 114.2 750.835 112.833 754.168 110.1C757.501 107.367 759.168 103.467 759.168 98.4C759.168 93.3333 757.501 89.4667 754.168 86.8C750.835 84.0667 746.001 82.7 739.668 82.7H722.668V114.2H739.668ZM802.736 90.5C810.069 90.5 815.669 92.3 819.536 95.9C823.469 99.5 825.436 104.867 825.436 112V144H816.336V137C814.736 139.467 812.436 141.367 809.436 142.7C806.503 143.967 803.003 144.6 798.936 144.6C793.003 144.6 788.236 143.167 784.636 140.3C781.103 137.433 779.336 133.667 779.336 129C779.336 124.333 781.036 120.6 784.436 117.8C787.836 114.933 793.236 113.5 800.636 113.5H815.836V111.6C815.836 107.467 814.636 104.3 812.236 102.1C809.836 99.9 806.303 98.8 801.636 98.8C798.503 98.8 795.436 99.3333 792.436 100.4C789.436 101.4 786.903 102.767 784.836 104.5L780.836 97.3C783.569 95.1 786.836 93.4333 790.636 92.3C794.436 91.1 798.469 90.5 802.736 90.5ZM800.536 137.2C804.203 137.2 807.369 136.4 810.036 134.8C812.703 133.133 814.636 130.8 815.836 127.8V120.4H801.036C792.903 120.4 788.836 123.133 788.836 128.6C788.836 131.267 789.869 133.367 791.936 134.9C794.003 136.433 796.869 137.2 800.536 137.2ZM871.502 90.5C878.235 90.5 883.568 92.4667 887.502 96.4C891.502 100.267 893.502 105.967 893.502 113.5V144H883.902V114.6C883.902 109.467 882.668 105.6 880.202 103C877.735 100.4 874.202 99.1 869.602 99.1C864.402 99.1 860.302 100.633 857.302 103.7C854.302 106.7 852.802 111.033 852.802 116.7V144H843.202V91H852.402V99C854.335 96.2667 856.935 94.1667 860.202 92.7C863.535 91.2333 867.302 90.5 871.502 90.5ZM931.868 119.3L920.868 129.5V144H911.268V69.8H920.868V117.4L949.768 91H961.368L939.068 112.9L963.568 144H951.768L931.868 119.3ZM1002.04 104.2C1000.18 104.2 998.578 103.567 997.245 102.3C995.911 100.967 995.245 99.3 995.245 97.3C995.245 95.3667 995.911 93.7667 997.245 92.5C998.578 91.1667 1000.18 90.5 1002.04 90.5C1003.91 90.5 1005.48 91.1333 1006.74 92.4C1008.01 93.6667 1008.64 95.3 1008.64 97.3C1008.64 99.3 1007.98 100.967 1006.64 102.3C1005.38 103.567 1003.84 104.2 1002.04 104.2ZM1002.04 144.6C1000.18 144.6 998.578 143.967 997.245 142.7C995.911 141.367 995.245 139.7 995.245 137.7C995.245 135.767 995.911 134.167 997.245 132.9C998.578 131.567 1000.18 130.9 1002.04 130.9C1003.91 130.9 1005.48 131.533 1006.74 132.8C1008.01 134.067 1008.64 135.7 1008.64 137.7C1008.64 139.7 1007.98 141.367 1006.64 142.7C1005.38 143.967 1003.84 144.6 1002.04 144.6ZM1081.96 144.8C1074.96 144.8 1068.62 143.267 1062.96 140.2C1057.36 137.067 1052.96 132.8 1049.76 127.4C1046.56 121.933 1044.96 115.8 1044.96 109C1044.96 102.2 1046.56 96.1 1049.76 90.7C1052.96 85.2333 1057.39 80.9667 1063.06 77.9C1068.72 74.7667 1075.06 73.2 1082.06 73.2C1087.52 73.2 1092.52 74.1333 1097.06 76C1101.59 77.8 1105.46 80.5 1108.66 84.1L1102.16 90.4C1096.89 84.8667 1090.32 82.1 1082.46 82.1C1077.26 82.1 1072.56 83.2667 1068.36 85.6C1064.16 87.9333 1060.86 91.1667 1058.46 95.3C1056.12 99.3667 1054.96 103.933 1054.96 109C1054.96 114.067 1056.12 118.667 1058.46 122.8C1060.86 126.867 1064.16 130.067 1068.36 132.4C1072.56 134.733 1077.26 135.9 1082.46 135.9C1090.26 135.9 1096.82 133.1 1102.16 127.5L1108.66 133.8C1105.46 137.4 1101.56 140.133 1096.96 142C1092.42 143.867 1087.42 144.8 1081.96 144.8ZM1149.82 90.5C1156.56 90.5 1161.89 92.4667 1165.82 96.4C1169.82 100.267 1171.82 105.967 1171.82 113.5V144H1162.22V114.6C1162.22 109.467 1160.99 105.6 1158.52 103C1156.06 100.4 1152.52 99.1 1147.92 99.1C1142.72 99.1 1138.62 100.633 1135.62 103.7C1132.62 106.7 1131.12 111.033 1131.12 116.7V144H1121.52V69.8H1131.12V98.5C1133.12 95.9667 1135.72 94 1138.92 92.6C1142.19 91.2 1145.82 90.5 1149.82 90.5ZM1208.89 90.5C1216.22 90.5 1221.82 92.3 1225.69 95.9C1229.62 99.5 1231.59 104.867 1231.59 112V144H1222.49V137C1220.89 139.467 1218.59 141.367 1215.59 142.7C1212.65 143.967 1209.15 144.6 1205.09 144.6C1199.15 144.6 1194.39 143.167 1190.79 140.3C1187.25 137.433 1185.49 133.667 1185.49 129C1185.49 124.333 1187.19 120.6 1190.59 117.8C1193.99 114.933 1199.39 113.5 1206.79 113.5H1221.99V111.6C1221.99 107.467 1220.79 104.3 1218.39 102.1C1215.99 99.9 1212.45 98.8 1207.79 98.8C1204.65 98.8 1201.59 99.3333 1198.59 100.4C1195.59 101.4 1193.05 102.767 1190.99 104.5L1186.99 97.3C1189.72 95.1 1192.99 93.4333 1196.79 92.3C1200.59 91.1 1204.62 90.5 1208.89 90.5ZM1206.69 137.2C1210.35 137.2 1213.52 136.4 1216.19 134.8C1218.85 133.133 1220.79 130.8 1221.99 127.8V120.4H1207.19C1199.05 120.4 1194.99 123.133 1194.99 128.6C1194.99 131.267 1196.02 133.367 1198.09 134.9C1200.15 136.433 1203.02 137.2 1206.69 137.2ZM1249.35 69.8H1258.95V144H1249.35V69.8ZM1277.28 69.8H1286.88V144H1277.28V69.8ZM1353.11 117.8C1353.11 118.533 1353.05 119.5 1352.91 120.7H1309.91C1310.51 125.367 1312.55 129.133 1316.01 132C1319.55 134.8 1323.91 136.2 1329.11 136.2C1335.45 136.2 1340.55 134.067 1344.41 129.8L1349.71 136C1347.31 138.8 1344.31 140.933 1340.71 142.4C1337.18 143.867 1333.21 144.6 1328.81 144.6C1323.21 144.6 1318.25 143.467 1313.91 141.2C1309.58 138.867 1306.21 135.633 1303.81 131.5C1301.48 127.367 1300.31 122.7 1300.31 117.5C1300.31 112.367 1301.45 107.733 1303.71 103.6C1306.05 99.4667 1309.21 96.2667 1313.21 94C1317.28 91.6667 1321.85 90.5 1326.91 90.5C1331.98 90.5 1336.48 91.6667 1340.41 94C1344.41 96.2667 1347.51 99.4667 1349.71 103.6C1351.98 107.733 1353.11 112.467 1353.11 117.8ZM1326.91 98.6C1322.31 98.6 1318.45 100 1315.31 102.8C1312.25 105.6 1310.45 109.267 1309.91 113.8H1343.91C1343.38 109.333 1341.55 105.7 1338.41 102.9C1335.35 100.033 1331.51 98.6 1326.91 98.6ZM1394.74 90.5C1401.48 90.5 1406.81 92.4667 1410.74 96.4C1414.74 100.267 1416.74 105.967 1416.74 113.5V144H1407.14V114.6C1407.14 109.467 1405.91 105.6 1403.44 103C1400.98 100.4 1397.44 99.1 1392.84 99.1C1387.64 99.1 1383.54 100.633 1380.54 103.7C1377.54 106.7 1376.04 111.033 1376.04 116.7V144H1366.44V91H1375.64V99C1377.58 96.2667 1380.18 94.1667 1383.44 92.7C1386.78 91.2333 1390.54 90.5 1394.74 90.5ZM1485.5 91V136.8C1485.5 146.067 1483.2 152.9 1478.6 157.3C1474 161.767 1467.14 164 1458 164C1453 164 1448.24 163.3 1443.7 161.9C1439.17 160.567 1435.5 158.633 1432.7 156.1L1437.3 148.7C1439.77 150.833 1442.8 152.5 1446.4 153.7C1450.07 154.967 1453.84 155.6 1457.7 155.6C1463.9 155.6 1468.47 154.133 1471.4 151.2C1474.4 148.267 1475.9 143.8 1475.9 137.8V133.6C1473.64 136.333 1470.84 138.4 1467.5 139.8C1464.24 141.133 1460.67 141.8 1456.8 141.8C1451.74 141.8 1447.14 140.733 1443 138.6C1438.94 136.4 1435.74 133.367 1433.4 129.5C1431.07 125.567 1429.9 121.1 1429.9 116.1C1429.9 111.1 1431.07 106.667 1433.4 102.8C1435.74 98.8667 1438.94 95.8333 1443 93.7C1447.14 91.5667 1451.74 90.5 1456.8 90.5C1460.8 90.5 1464.5 91.2333 1467.9 92.7C1471.37 94.1667 1474.2 96.3333 1476.4 99.2V91H1485.5ZM1457.9 133.4C1461.37 133.4 1464.47 132.667 1467.2 131.2C1470 129.733 1472.17 127.7 1473.7 125.1C1475.3 122.433 1476.1 119.433 1476.1 116.1C1476.1 110.967 1474.4 106.833 1471 103.7C1467.6 100.5 1463.24 98.9 1457.9 98.9C1452.5 98.9 1448.1 100.5 1444.7 103.7C1441.3 106.833 1439.6 110.967 1439.6 116.1C1439.6 119.433 1440.37 122.433 1441.9 125.1C1443.5 127.7 1445.67 129.733 1448.4 131.2C1451.2 132.667 1454.37 133.4 1457.9 133.4ZM1551.75 117.8C1551.75 118.533 1551.68 119.5 1551.55 120.7H1508.55C1509.15 125.367 1511.18 129.133 1514.65 132C1518.18 134.8 1522.55 136.2 1527.75 136.2C1534.08 136.2 1539.18 134.067 1543.05 129.8L1548.35 136C1545.95 138.8 1542.95 140.933 1539.35 142.4C1535.81 143.867 1531.85 144.6 1527.45 144.6C1521.85 144.6 1516.88 143.467 1512.55 141.2C1508.21 138.867 1504.85 135.633 1502.45 131.5C1500.11 127.367 1498.95 122.7 1498.95 117.5C1498.95 112.367 1500.08 107.733 1502.35 103.6C1504.68 99.4667 1507.85 96.2667 1511.85 94C1515.91 91.6667 1520.48 90.5 1525.55 90.5C1530.61 90.5 1535.11 91.6667 1539.05 94C1543.05 96.2667 1546.15 99.4667 1548.35 103.6C1550.61 107.733 1551.75 112.467 1551.75 117.8ZM1525.55 98.6C1520.95 98.6 1517.08 100 1513.95 102.8C1510.88 105.6 1509.08 109.267 1508.55 113.8H1542.55C1542.01 109.333 1540.18 105.7 1537.05 102.9C1533.98 100.033 1530.15 98.6 1525.55 98.6ZM1574.28 99.9C1575.94 96.8333 1578.41 94.5 1581.68 92.9C1584.94 91.3 1588.91 90.5 1593.58 90.5V99.8C1593.04 99.7333 1592.31 99.7 1591.38 99.7C1586.18 99.7 1582.08 101.267 1579.08 104.4C1576.14 107.467 1574.68 111.867 1574.68 117.6V144H1565.08V91H1574.28V99.9Z" fill="#696F79"/>
</svg>
