<svg width="1750" height="161" viewBox="0 0 1750 161" fill="none" xmlns="http://www.w3.org/2000/svg">
<rect x="8" y="8" width="1734" height="145" fill="#151F2E" stroke="#696F79" stroke-width="15" stroke-linejoin="round"/>
<path d="M195.808 46C204.874 46 212.008 48.1667 217.208 52.5C222.408 56.8333 225.008 62.8 225.008 70.4C225.008 78 222.408 83.9667 217.208 88.3C212.008 92.6333 204.874 94.8 195.808 94.8H178.508V116H168.508V46H195.808ZM195.508 86.1C201.841 86.1 206.674 84.7667 210.008 82.1C213.341 79.3667 215.008 75.4667 215.008 70.4C215.008 65.3333 213.341 61.4667 210.008 58.8C206.674 56.0667 201.841 54.7 195.508 54.7H178.508V86.1H195.508ZM260.804 116.6C255.537 116.6 250.804 115.433 246.604 113.1C242.404 110.767 239.104 107.567 236.704 103.5C234.371 99.3667 233.204 94.7 233.204 89.5C233.204 84.3 234.371 79.6667 236.704 75.6C239.104 71.4667 242.404 68.2667 246.604 66C250.804 63.6667 255.537 62.5 260.804 62.5C266.071 62.5 270.771 63.6667 274.904 66C279.104 68.2667 282.371 71.4667 284.704 75.6C287.104 79.6667 288.304 84.3 288.304 89.5C288.304 94.7 287.104 99.3667 284.704 103.5C282.371 107.567 279.104 110.767 274.904 113.1C270.771 115.433 266.071 116.6 260.804 116.6ZM260.804 108.2C264.204 108.2 267.237 107.433 269.904 105.9C272.637 104.3 274.771 102.1 276.304 99.3C277.837 96.4333 278.604 93.1667 278.604 89.5C278.604 85.8333 277.837 82.6 276.304 79.8C274.771 76.9333 272.637 74.7333 269.904 73.2C267.237 71.6667 264.204 70.9 260.804 70.9C257.404 70.9 254.337 71.6667 251.604 73.2C248.937 74.7333 246.804 76.9333 245.204 79.8C243.671 82.6 242.904 85.8333 242.904 89.5C242.904 93.1667 243.671 96.4333 245.204 99.3C246.804 102.1 248.937 104.3 251.604 105.9C254.337 107.433 257.404 108.2 260.804 108.2ZM301.58 63H311.18V116H301.58V63ZM306.38 52.8C304.514 52.8 302.947 52.2 301.68 51C300.48 49.8 299.88 48.3333 299.88 46.6C299.88 44.8667 300.48 43.4 301.68 42.2C302.947 40.9333 304.514 40.3 306.38 40.3C308.247 40.3 309.78 40.9 310.98 42.1C312.247 43.2333 312.88 44.6667 312.88 46.4C312.88 48.2 312.247 49.7333 310.98 51C309.78 52.2 308.247 52.8 306.38 52.8ZM357.81 62.5C364.543 62.5 369.877 64.4667 373.81 68.4C377.81 72.2667 379.81 77.9667 379.81 85.5V116H370.21V86.6C370.21 81.4667 368.977 77.6 366.51 75C364.043 72.4 360.51 71.1 355.91 71.1C350.71 71.1 346.61 72.6333 343.61 75.7C340.61 78.7 339.11 83.0333 339.11 88.7V116H329.51V63H338.71V71C340.643 68.2667 343.243 66.1667 346.51 64.7C349.843 63.2333 353.61 62.5 357.81 62.5ZM427.377 112.9C425.977 114.1 424.243 115.033 422.177 115.7C420.11 116.3 417.977 116.6 415.777 116.6C410.443 116.6 406.31 115.167 403.377 112.3C400.443 109.433 398.977 105.333 398.977 100V70.9H389.977V63H398.977V51.4H408.577V63H423.777V70.9H408.577V99.6C408.577 102.467 409.277 104.667 410.677 106.2C412.143 107.733 414.21 108.5 416.877 108.5C419.81 108.5 422.31 107.667 424.377 106L427.377 112.9ZM454.183 116.6C449.849 116.6 445.683 116.033 441.683 114.9C437.683 113.7 434.549 112.2 432.283 110.4L436.283 102.8C438.616 104.467 441.449 105.8 444.783 106.8C448.116 107.8 451.483 108.3 454.883 108.3C463.283 108.3 467.483 105.9 467.483 101.1C467.483 99.5 466.916 98.2333 465.783 97.3C464.649 96.3667 463.216 95.7 461.483 95.3C459.816 94.8333 457.416 94.3333 454.283 93.8C450.016 93.1333 446.516 92.3667 443.783 91.5C441.116 90.6333 438.816 89.1667 436.883 87.1C434.949 85.0333 433.983 82.1333 433.983 78.4C433.983 73.6 435.983 69.7667 439.983 66.9C443.983 63.9667 449.349 62.5 456.083 62.5C459.616 62.5 463.149 62.9333 466.683 63.8C470.216 64.6667 473.116 65.8333 475.383 67.3L471.283 74.9C466.949 72.1 461.849 70.7 455.983 70.7C451.916 70.7 448.816 71.3667 446.683 72.7C444.549 74.0333 443.483 75.8 443.483 78C443.483 79.7333 444.083 81.1 445.283 82.1C446.483 83.1 447.949 83.8333 449.683 84.3C451.483 84.7667 453.983 85.3 457.183 85.9C461.449 86.6333 464.883 87.4333 467.483 88.3C470.149 89.1 472.416 90.5 474.283 92.5C476.149 94.5 477.083 97.3 477.083 100.9C477.083 105.7 475.016 109.533 470.883 112.4C466.816 115.2 461.249 116.6 454.183 116.6ZM518.236 76.2C516.369 76.2 514.769 75.5667 513.436 74.3C512.103 72.9667 511.436 71.3 511.436 69.3C511.436 67.3667 512.103 65.7667 513.436 64.5C514.769 63.1667 516.369 62.5 518.236 62.5C520.103 62.5 521.669 63.1333 522.936 64.4C524.203 65.6667 524.836 67.3 524.836 69.3C524.836 71.3 524.169 72.9667 522.836 74.3C521.569 75.5667 520.036 76.2 518.236 76.2ZM518.236 116.6C516.369 116.6 514.769 115.967 513.436 114.7C512.103 113.367 511.436 111.7 511.436 109.7C511.436 107.767 512.103 106.167 513.436 104.9C514.769 103.567 516.369 102.9 518.236 102.9C520.103 102.9 521.669 103.533 522.936 104.8C524.203 106.067 524.836 107.7 524.836 109.7C524.836 111.7 524.169 113.367 522.836 114.7C521.569 115.967 520.036 116.6 518.236 116.6ZM587.948 75.4C594.814 76.0667 600.048 78.2 603.648 81.8C607.248 85.3333 609.048 89.8667 609.048 95.4C609.048 99.4 608.048 103.033 606.048 106.3C604.048 109.5 601.048 112.067 597.048 114C593.114 115.867 588.281 116.8 582.548 116.8C577.548 116.8 572.748 116.067 568.148 114.6C563.548 113.067 559.781 110.967 556.848 108.3L561.448 100.4C563.848 102.667 566.914 104.5 570.648 105.9C574.381 107.233 578.348 107.9 582.548 107.9C587.748 107.9 591.781 106.8 594.648 104.6C597.581 102.4 599.048 99.3667 599.048 95.5C599.048 91.6333 597.614 88.6333 594.748 86.5C591.881 84.3667 587.548 83.3 581.748 83.3H576.148V76.3L593.748 54.7H560.048V46H606.248V52.8L587.948 75.4ZM650.93 41.8H659.83V135.4H650.93V41.8ZM754.468 116L739.368 94.5C737.501 94.6333 736.035 94.7 734.968 94.7H717.668V116H707.668V46H734.968C744.035 46 751.168 48.1667 756.368 52.5C761.568 56.8333 764.168 62.8 764.168 70.4C764.168 75.8 762.835 80.4 760.168 84.2C757.501 88 753.701 90.7667 748.768 92.5L765.368 116H754.468ZM734.668 86.2C741.001 86.2 745.835 84.8333 749.168 82.1C752.501 79.3667 754.168 75.4667 754.168 70.4C754.168 65.3333 752.501 61.4667 749.168 58.8C745.835 56.0667 741.001 54.7 734.668 54.7H717.668V86.2H734.668ZM797.736 62.5C805.069 62.5 810.669 64.3 814.536 67.9C818.469 71.5 820.436 76.8667 820.436 84V116H811.336V109C809.736 111.467 807.436 113.367 804.436 114.7C801.503 115.967 798.003 116.6 793.936 116.6C788.003 116.6 783.236 115.167 779.636 112.3C776.103 109.433 774.336 105.667 774.336 101C774.336 96.3333 776.036 92.6 779.436 89.8C782.836 86.9333 788.236 85.5 795.636 85.5H810.836V83.6C810.836 79.4667 809.636 76.3 807.236 74.1C804.836 71.9 801.303 70.8 796.636 70.8C793.503 70.8 790.436 71.3333 787.436 72.4C784.436 73.4 781.903 74.7667 779.836 76.5L775.836 69.3C778.569 67.1 781.836 65.4333 785.636 64.3C789.436 63.1 793.469 62.5 797.736 62.5ZM795.536 109.2C799.203 109.2 802.369 108.4 805.036 106.8C807.703 105.133 809.636 102.8 810.836 99.8V92.4H796.036C787.903 92.4 783.836 95.1333 783.836 100.6C783.836 103.267 784.869 105.367 786.936 106.9C789.003 108.433 791.869 109.2 795.536 109.2ZM866.502 62.5C873.235 62.5 878.568 64.4667 882.502 68.4C886.502 72.2667 888.502 77.9667 888.502 85.5V116H878.902V86.6C878.902 81.4667 877.668 77.6 875.202 75C872.735 72.4 869.202 71.1 864.602 71.1C859.402 71.1 855.302 72.6333 852.302 75.7C849.302 78.7 847.802 83.0333 847.802 88.7V116H838.202V63H847.402V71C849.335 68.2667 851.935 66.1667 855.202 64.7C858.535 63.2333 862.302 62.5 866.502 62.5ZM926.868 91.3L915.868 101.5V116H906.268V41.8H915.868V89.4L944.768 63H956.368L934.068 84.9L958.568 116H946.768L926.868 91.3ZM997.045 76.2C995.178 76.2 993.578 75.5667 992.245 74.3C990.911 72.9667 990.245 71.3 990.245 69.3C990.245 67.3667 990.911 65.7667 992.245 64.5C993.578 63.1667 995.178 62.5 997.045 62.5C998.911 62.5 1000.48 63.1333 1001.74 64.4C1003.01 65.6667 1003.64 67.3 1003.64 69.3C1003.64 71.3 1002.98 72.9667 1001.64 74.3C1000.38 75.5667 998.845 76.2 997.045 76.2ZM997.045 116.6C995.178 116.6 993.578 115.967 992.245 114.7C990.911 113.367 990.245 111.7 990.245 109.7C990.245 107.767 990.911 106.167 992.245 104.9C993.578 103.567 995.178 102.9 997.045 102.9C998.911 102.9 1000.48 103.533 1001.74 104.8C1003.01 106.067 1003.64 107.7 1003.64 109.7C1003.64 111.7 1002.98 113.367 1001.64 114.7C1000.38 115.967 998.845 116.6 997.045 116.6ZM1076.96 116.8C1069.96 116.8 1063.62 115.267 1057.96 112.2C1052.36 109.067 1047.96 104.8 1044.76 99.4C1041.56 93.9333 1039.96 87.8 1039.96 81C1039.96 74.2 1041.56 68.1 1044.76 62.7C1047.96 57.2333 1052.39 52.9667 1058.06 49.9C1063.72 46.7667 1070.06 45.2 1077.06 45.2C1082.52 45.2 1087.52 46.1333 1092.06 48C1096.59 49.8 1100.46 52.5 1103.66 56.1L1097.16 62.4C1091.89 56.8667 1085.32 54.1 1077.46 54.1C1072.26 54.1 1067.56 55.2667 1063.36 57.6C1059.16 59.9333 1055.86 63.1667 1053.46 67.3C1051.12 71.3667 1049.96 75.9333 1049.96 81C1049.96 86.0667 1051.12 90.6667 1053.46 94.8C1055.86 98.8667 1059.16 102.067 1063.36 104.4C1067.56 106.733 1072.26 107.9 1077.46 107.9C1085.26 107.9 1091.82 105.1 1097.16 99.5L1103.66 105.8C1100.46 109.4 1096.56 112.133 1091.96 114C1087.42 115.867 1082.42 116.8 1076.96 116.8ZM1144.82 62.5C1151.56 62.5 1156.89 64.4667 1160.82 68.4C1164.82 72.2667 1166.82 77.9667 1166.82 85.5V116H1157.22V86.6C1157.22 81.4667 1155.99 77.6 1153.52 75C1151.06 72.4 1147.52 71.1 1142.92 71.1C1137.72 71.1 1133.62 72.6333 1130.62 75.7C1127.62 78.7 1126.12 83.0333 1126.12 88.7V116H1116.52V41.8H1126.12V70.5C1128.12 67.9667 1130.72 66 1133.92 64.6C1137.19 63.2 1140.82 62.5 1144.82 62.5ZM1203.89 62.5C1211.22 62.5 1216.82 64.3 1220.69 67.9C1224.62 71.5 1226.59 76.8667 1226.59 84V116H1217.49V109C1215.89 111.467 1213.59 113.367 1210.59 114.7C1207.65 115.967 1204.15 116.6 1200.09 116.6C1194.15 116.6 1189.39 115.167 1185.79 112.3C1182.25 109.433 1180.49 105.667 1180.49 101C1180.49 96.3333 1182.19 92.6 1185.59 89.8C1188.99 86.9333 1194.39 85.5 1201.79 85.5H1216.99V83.6C1216.99 79.4667 1215.79 76.3 1213.39 74.1C1210.99 71.9 1207.45 70.8 1202.79 70.8C1199.65 70.8 1196.59 71.3333 1193.59 72.4C1190.59 73.4 1188.05 74.7667 1185.99 76.5L1181.99 69.3C1184.72 67.1 1187.99 65.4333 1191.79 64.3C1195.59 63.1 1199.62 62.5 1203.89 62.5ZM1201.69 109.2C1205.35 109.2 1208.52 108.4 1211.19 106.8C1213.85 105.133 1215.79 102.8 1216.99 99.8V92.4H1202.19C1194.05 92.4 1189.99 95.1333 1189.99 100.6C1189.99 103.267 1191.02 105.367 1193.09 106.9C1195.15 108.433 1198.02 109.2 1201.69 109.2ZM1244.35 41.8H1253.95V116H1244.35V41.8ZM1272.28 41.8H1281.88V116H1272.28V41.8ZM1348.11 89.8C1348.11 90.5333 1348.05 91.5 1347.91 92.7H1304.91C1305.51 97.3667 1307.55 101.133 1311.01 104C1314.55 106.8 1318.91 108.2 1324.11 108.2C1330.45 108.2 1335.55 106.067 1339.41 101.8L1344.71 108C1342.31 110.8 1339.31 112.933 1335.71 114.4C1332.18 115.867 1328.21 116.6 1323.81 116.6C1318.21 116.6 1313.25 115.467 1308.91 113.2C1304.58 110.867 1301.21 107.633 1298.81 103.5C1296.48 99.3667 1295.31 94.7 1295.31 89.5C1295.31 84.3667 1296.45 79.7333 1298.71 75.6C1301.05 71.4667 1304.21 68.2667 1308.21 66C1312.28 63.6667 1316.85 62.5 1321.91 62.5C1326.98 62.5 1331.48 63.6667 1335.41 66C1339.41 68.2667 1342.51 71.4667 1344.71 75.6C1346.98 79.7333 1348.11 84.4667 1348.11 89.8ZM1321.91 70.6C1317.31 70.6 1313.45 72 1310.31 74.8C1307.25 77.6 1305.45 81.2667 1304.91 85.8H1338.91C1338.38 81.3333 1336.55 77.7 1333.41 74.9C1330.35 72.0333 1326.51 70.6 1321.91 70.6ZM1389.74 62.5C1396.48 62.5 1401.81 64.4667 1405.74 68.4C1409.74 72.2667 1411.74 77.9667 1411.74 85.5V116H1402.14V86.6C1402.14 81.4667 1400.91 77.6 1398.44 75C1395.98 72.4 1392.44 71.1 1387.84 71.1C1382.64 71.1 1378.54 72.6333 1375.54 75.7C1372.54 78.7 1371.04 83.0333 1371.04 88.7V116H1361.44V63H1370.64V71C1372.58 68.2667 1375.18 66.1667 1378.44 64.7C1381.78 63.2333 1385.54 62.5 1389.74 62.5ZM1480.5 63V108.8C1480.5 118.067 1478.2 124.9 1473.6 129.3C1469 133.767 1462.14 136 1453 136C1448 136 1443.24 135.3 1438.7 133.9C1434.17 132.567 1430.5 130.633 1427.7 128.1L1432.3 120.7C1434.77 122.833 1437.8 124.5 1441.4 125.7C1445.07 126.967 1448.84 127.6 1452.7 127.6C1458.9 127.6 1463.47 126.133 1466.4 123.2C1469.4 120.267 1470.9 115.8 1470.9 109.8V105.6C1468.64 108.333 1465.84 110.4 1462.5 111.8C1459.24 113.133 1455.67 113.8 1451.8 113.8C1446.74 113.8 1442.14 112.733 1438 110.6C1433.94 108.4 1430.74 105.367 1428.4 101.5C1426.07 97.5667 1424.9 93.1 1424.9 88.1C1424.9 83.1 1426.07 78.6667 1428.4 74.8C1430.74 70.8667 1433.94 67.8333 1438 65.7C1442.14 63.5667 1446.74 62.5 1451.8 62.5C1455.8 62.5 1459.5 63.2333 1462.9 64.7C1466.37 66.1667 1469.2 68.3333 1471.4 71.2V63H1480.5ZM1452.9 105.4C1456.37 105.4 1459.47 104.667 1462.2 103.2C1465 101.733 1467.17 99.7 1468.7 97.1C1470.3 94.4333 1471.1 91.4333 1471.1 88.1C1471.1 82.9667 1469.4 78.8333 1466 75.7C1462.6 72.5 1458.24 70.9 1452.9 70.9C1447.5 70.9 1443.1 72.5 1439.7 75.7C1436.3 78.8333 1434.6 82.9667 1434.6 88.1C1434.6 91.4333 1435.37 94.4333 1436.9 97.1C1438.5 99.7 1440.67 101.733 1443.4 103.2C1446.2 104.667 1449.37 105.4 1452.9 105.4ZM1546.75 89.8C1546.75 90.5333 1546.68 91.5 1546.55 92.7H1503.55C1504.15 97.3667 1506.18 101.133 1509.65 104C1513.18 106.8 1517.55 108.2 1522.75 108.2C1529.08 108.2 1534.18 106.067 1538.05 101.8L1543.35 108C1540.95 110.8 1537.95 112.933 1534.35 114.4C1530.81 115.867 1526.85 116.6 1522.45 116.6C1516.85 116.6 1511.88 115.467 1507.55 113.2C1503.21 110.867 1499.85 107.633 1497.45 103.5C1495.11 99.3667 1493.95 94.7 1493.95 89.5C1493.95 84.3667 1495.08 79.7333 1497.35 75.6C1499.68 71.4667 1502.85 68.2667 1506.85 66C1510.91 63.6667 1515.48 62.5 1520.55 62.5C1525.61 62.5 1530.11 63.6667 1534.05 66C1538.05 68.2667 1541.15 71.4667 1543.35 75.6C1545.61 79.7333 1546.75 84.4667 1546.75 89.8ZM1520.55 70.6C1515.95 70.6 1512.08 72 1508.95 74.8C1505.88 77.6 1504.08 81.2667 1503.55 85.8H1537.55C1537.01 81.3333 1535.18 77.7 1532.05 74.9C1528.98 72.0333 1525.15 70.6 1520.55 70.6ZM1569.28 71.9C1570.94 68.8333 1573.41 66.5 1576.68 64.9C1579.94 63.3 1583.91 62.5 1588.58 62.5V71.8C1588.04 71.7333 1587.31 71.7 1586.38 71.7C1581.18 71.7 1577.08 73.2667 1574.08 76.4C1571.14 79.4667 1569.68 83.8667 1569.68 89.6V116H1560.08V63H1569.28V71.9Z" fill="#696F79"/>
</svg>
